<svg xmlns="http://www.w3.org/2000/svg" version="1.1" xmlns:xlink="http://www.w3.org/1999/xlink" xmlns:svgjs="http://svgjs.com/svgjs" width="60" height="60" x="0" y="0" viewBox="0 0 512.001 512.001" style="enable-background:new 0 0 512 512" xml:space="preserve"><g><circle cx="71.599" cy="219.948" r="64.1" style="" fill="#965A50" data-original="#965a50"></circle><circle cx="71.599" cy="219.948" r="40.06" style="" fill="#D4AF91" data-original="#d4af91"></circle><circle cx="440.149" cy="219.948" r="64.1" style="" fill="#965A50" data-original="#965a50"></circle><circle cx="440.149" cy="219.948" r="40.06" style="" fill="#EBC9A0" data-original="#ebc9a0"></circle><path d="M436.905 257.862c-8.117-14.005-12.777-29.742-12.777-45.93 0-70.217-43.043-130.328-104.157-155.542V27.654l-40.06 16.024-8.012-32.048c-21.132 7.044-39.159 21.828-52.737 36.187-75.246 16.769-131.541 83.816-131.541 164.115 0 16.188-4.66 31.924-12.777 45.93-12.341 21.294-19.272 45.098-19.272 70.246 0 90.711 89.678 164.248 200.302 164.248s200.302-73.536 200.302-164.248c0-25.149-6.931-48.952-19.271-70.246z" style="" fill="#AF6E5A" data-original="#af6e5a"></path><path d="M143.705 356.817c0-29.339 6.93-57.11 19.271-81.953 8.118-16.34 12.777-34.698 12.777-53.585 0-81.532 42.659-151.311 103.321-180.947l-7.176-28.702c-21.132 7.044-39.159 21.828-52.738 36.187-75.245 16.768-131.54 83.816-131.54 164.115 0 16.188-4.659 31.924-12.777 45.93-12.341 21.294-19.271 45.098-19.271 70.246 0 73.217 58.438 135.219 139.143 156.421-31.707-33.901-51.01-78.642-51.01-127.712z" style="" fill="#965A50" data-original="#965a50"></path><path d="M255.874 460.306c66.374 0 120.181-43.046 120.181-96.145 0-11.016-2.342-21.582-6.631-31.422-6.219-14.269-4.102-30.646 5.889-42.582 12.743-15.224 19.315-35.779 15.846-57.858-4.764-30.328-29.283-54.804-59.617-59.525-23.18-3.608-44.666 3.85-60.059 17.89-4.375 3.991-9.993 5.986-15.607 5.986-5.618 0-11.236-1.995-15.611-5.986-15.393-14.04-36.879-21.498-60.059-17.89-30.335 4.721-54.853 29.197-59.617 59.525-3.468 22.079 3.104 42.634 15.846 57.858 9.991 11.936 12.108 28.313 5.889 42.582-4.289 9.84-6.631 20.406-6.631 31.422 0 53.1 53.807 96.145 120.181 96.145z" style="" fill="#FAEBC8" data-original="#faebc8"></path><path d="M135.693 364.161c0 17.97 6.275 34.729 17.002 49.117-5.761-17.863-8.99-36.787-8.99-56.461 0-29.339 6.93-57.11 19.271-81.953 8.118-16.34 12.777-34.698 12.777-53.585 0-16.792 1.901-33.042 5.305-48.588-.287.041-.565.039-.853.084-30.335 4.721-54.852 29.197-59.617 59.525-3.468 22.08 3.104 42.635 15.846 57.859 9.992 11.936 12.109 28.312 5.89 42.582-4.288 9.838-6.631 20.404-6.631 31.42z" style="" fill="#F5DCB4" data-original="#f5dcb4"></path><path d="M175.754 356.15c0 39.825 35.871 72.109 80.121 72.109s80.121-32.284 80.121-72.109H175.754z" style="" fill="#4B3F4E" data-original="#4b3f4e"></path><path d="M209.709 415.025c13.056 8.308 28.96 13.233 46.165 13.233s33.109-4.925 46.165-13.233c-5.788-20.051-24.316-34.839-46.165-34.839s-40.377 14.788-46.165 34.839z" style="" fill="#E6646E" data-original="#e6646e"></path><path d="M71.597 259.337c-25.37 57.42-50.629 151.247-64.097 241.03h96.145c16.024-112.169 44.733-190.286 44.733-190.286l-76.781-50.744z" style="" fill="#AF6E5A" data-original="#af6e5a"></path><path d="M45.182 500.367c13.206-75.284 39.791-164.187 61.423-217.895l-35.008-23.135c-25.37 57.42-50.629 151.247-64.097 241.03h37.682z" style="" fill="#965A50" data-original="#965a50"></path><path d="M84.367 148.295c11.417 2.198 19.273 12.862 19.273 24.488v32.035l25.746-25.746c22.537-22.537 58.548-26.787 84.287-7.988 32.439 23.692 35.017 69.978 7.734 97.261l-35.922 35.922c-23.867 23.867-62.921 23.867-86.787 0l-10.271-10.271a112.169 112.169 0 0 1-32.854-79.316v-42.812c-.007-14.828 13.434-26.529 28.794-23.573z" style="" fill="#F5DCB4" data-original="#f5dcb4"></path><path d="M210.276 168.847c-25.435-16.105-59.322-11.343-80.891 10.226l-25.745 25.746v-32.036c0-11.627-7.857-22.29-19.273-24.489-15.36-2.957-28.8 8.744-28.794 23.574v42.813c0 29.749 11.818 58.28 32.854 79.315l10.269 10.271c-8.818-32.61 36.898-134.136 111.58-135.42z" style="" fill="#EBC9A0" data-original="#ebc9a0"></path><path d="M440.403 259.337c25.37 57.42 50.629 151.247 64.097 241.03h-96.145c-16.024-112.169-44.733-190.287-44.733-190.287l76.781-50.743z" style="" fill="#AF6E5A" data-original="#af6e5a"></path><path d="M427.633 148.295c-11.417 2.198-19.273 12.862-19.273 24.488v32.035l-25.746-25.746c-22.537-22.537-58.548-26.787-84.287-7.988-32.439 23.692-35.017 69.978-7.734 97.261l35.922 35.922c23.867 23.867 62.921 23.867 86.787 0l10.271-10.271a112.169 112.169 0 0 0 32.854-79.316v-42.812c.007-14.828-13.434-26.529-28.794-23.573z" style="" fill="#F5DCB4" data-original="#f5dcb4"></path><path d="m220.581 314.812 16.032 8.016a7.502 7.502 0 0 0 6.709-13.416l-16.032-8.016a7.501 7.501 0 0 0-6.709 13.416zM272.038 323.621a7.48 7.48 0 0 0 3.349-.793l16.032-8.016a7.5 7.5 0 0 0-6.709-13.416l-16.032 8.016a7.5 7.5 0 0 0 3.36 14.209zM168.339 356.2c0 43.917 39.324 79.645 87.661 79.645s87.661-35.729 87.661-79.645a7.5 7.5 0 0 0-7.5-7.5H175.839a7.5 7.5 0 0 0-7.5 7.5zM256 404.813a7.5 7.5 0 0 0-7.5 7.5v8.18c-10.713-.982-20.738-4.047-29.565-8.725A40.605 40.605 0 0 1 256 387.749c16.192 0 30.594 9.496 37.067 24.018-8.828 4.679-18.853 7.744-29.567 8.726v-8.18a7.5 7.5 0 0 0-7.5-7.5zm72.175-41.113c-2.029 15.556-10.303 29.435-22.511 39.625-9.326-18.576-28.366-30.576-49.664-30.576-21.206 0-40.314 12.028-49.656 30.582-12.212-10.19-20.489-24.071-22.519-39.631h144.35z" fill="#000000" data-original="#000000"></path><path d="M454.662 290.108C487.668 283.414 512 254.074 512 219.926c0-33.837-23.998-63.316-57.079-70.146a32.024 32.024 0 0 0-2.479-2.284c-7.284-6.019-16.855-8.431-26.265-6.62a30.014 30.014 0 0 0-8.091 2.806c-17.287-40.991-49.668-74.118-90.457-92.334V27.539a7.498 7.498 0 0 0-10.285-6.963l-32.103 12.841-5.932-23.729a7.502 7.502 0 0 0-9.648-5.296c-18.575 6.192-36.821 18.472-54.261 36.515-27.77 6.577-53.772 19.995-75.329 38.895-20.015 17.547-35.845 39.519-46.142 63.89a30.008 30.008 0 0 0-8.105-2.814c-9.405-1.811-18.98.601-26.265 6.62a31.662 31.662 0 0 0-2.479 2.284C23.999 156.612.001 186.091.001 219.928c0 34.148 24.332 63.488 57.338 70.182C36.564 343.665 12.223 418.456.084 499.38a7.5 7.5 0 0 0 14.834 2.226c12.448-82.982 37.983-159.522 58.99-212.672a121.805 121.805 0 0 0 9.257 10.388l10.275 10.276c11.046 11.046 25.244 17.844 40.614 19.621-6.783 20.23-24.789 79.242-37.785 170.213a7.5 7.5 0 1 0 14.849 2.121 1246.71 1246.71 0 0 1 7.196-44.624c38.016 27.828 86.435 43.047 137.686 43.047 51.229 0 99.668-15.222 137.688-43.048 2.5 13.887 4.93 28.775 7.194 44.624a7.5 7.5 0 0 0 14.849-2.121c-12.996-90.972-31.001-149.984-37.785-170.213 14.701-1.704 28.388-8.02 39.233-18.278 3.01-2.846 3.142-7.593.295-10.603s-7.595-3.141-10.602-.295c-20.997 19.859-54.707 19.387-75.144-1.052l-35.939-35.94c-11.669-11.668-17.623-27.881-16.338-44.482 1.28-16.522 9.734-31.637 23.195-41.468 22.193-16.208 54.266-13.097 74.602 7.239l25.759 25.759a7.502 7.502 0 0 0 12.804-5.303v-32.052c0-8.32 5.675-15.687 13.201-17.136 5.072-.977 9.998.251 13.875 3.454a16.5 16.5 0 0 1 6.016 12.767v42.834c0 22.749-7.579 45.251-21.342 63.361a7.501 7.501 0 0 0 1.434 10.51 7.501 7.501 0 0 0 8.97.076c21.031 53.163 46.645 129.846 59.118 212.996a7.501 7.501 0 0 0 14.834-2.226c-12.139-80.925-36.48-155.716-57.255-209.271zM15 219.926c0-22.519 13.441-42.594 33.289-51.604a31.603 31.603 0 0 0-.192 3.505v42.834c0 21.13 5.441 41.423 15.653 59.284-.262.647-.522 1.282-.786 1.937C35.541 271.672 15 247.829 15 219.926zm78.77 68.787c-19.78-19.781-30.674-46.08-30.674-74.052v-42.837a16.495 16.495 0 0 1 6.016-12.764c3.009-2.485 6.648-3.781 10.497-3.781 1.112 0 2.242.108 3.378.327 7.526 1.449 13.201 8.815 13.201 17.136v32.052a7.499 7.499 0 0 0 12.804 5.303l25.759-25.759c20.336-20.336 52.41-23.449 74.602-7.239 13.461 9.831 21.915 24.946 23.195 41.468 1.285 16.601-4.669 32.813-16.338 44.482l-35.939 35.94c-10.132 10.132-23.667 15.712-38.112 15.712-14.444 0-27.979-5.58-38.112-15.712L93.77 288.713zM256 484.974c-50.716 0-98.359-15.799-134.595-44.543 3.761-19.322 7.536-36.129 10.955-50.113 14.293 44.583 64.306 77.591 123.641 77.591 59.32 0 109.322-32.993 123.63-77.559 3.536 14.438 7.286 31.177 10.967 50.076-36.24 28.743-83.904 44.548-134.598 44.548zm29.183-211.319 35.939 35.94c10.697 10.697 24.404 17.426 39.254 19.447a49.746 49.746 0 0 0 2.356 6.733c3.987 9.149 6.01 18.719 6.01 28.441 0 48.906-50.576 88.693-112.742 88.693s-112.742-39.788-112.742-88.693c0-9.722 2.022-19.292 6.01-28.441a49.777 49.777 0 0 0 2.357-6.725c14.847-2.013 28.533-8.736 39.253-19.455l35.939-35.94c14.771-14.771 22.31-35.271 20.686-56.247a71.54 71.54 0 0 0-2.946-15.486 31.115 31.115 0 0 0 22.886 0 71.54 71.54 0 0 0-2.946 15.486c-1.624 20.976 5.915 41.477 20.686 56.247zm115.628-100.913v13.945l-12.955-12.956c-25.516-25.514-65.95-29.275-94.057-8.746a72.425 72.425 0 0 0-8.71 7.496c-.159.066-.318.13-.475.208a79.704 79.704 0 0 0-18.053 12.402c-5.922 5.403-15.202 5.401-21.126-.001a79.59 79.59 0 0 0-18.556-12.637 72.315 72.315 0 0 0-8.68-7.467c-28.107-20.527-68.542-16.768-94.057 8.746l-12.955 12.956v-13.945c0-6.741-1.987-13.065-5.421-18.307 9.301-24.249 24.542-46.128 44.192-63.355 20.248-17.752 44.779-30.217 70.94-36.047a7.49 7.49 0 0 0 3.818-2.167c13.755-14.545 27.882-25.047 42.097-31.307l5.958 23.833a7.498 7.498 0 0 0 10.061 5.144l29.795-11.918v17.672a7.5 7.5 0 0 0 4.64 6.933c40.95 16.895 73.188 50.006 88.976 91.195-3.44 5.244-5.432 11.574-5.432 18.323zm63.092 41.919V171.83c0-1.18-.064-2.351-.192-3.508 19.848 9.01 33.289 29.085 33.289 51.604 0 27.903-20.541 51.746-47.964 55.956-.277-.688-.55-1.354-.825-2.033 10.182-17.959 15.692-38.48 15.692-59.188z" fill="#000000" data-original="#000000"></path></g></svg>